<?xml version="1.0" standalone="no"?>
<!DOCTYPE svg PUBLIC "-//W3C//DTD SVG 20010904//EN"
 "http://www.w3.org/TR/2001/REC-SVG-20010904/DTD/svg10.dtd">
<svg version="1.0" xmlns="http://www.w3.org/2000/svg"
 width="667.000000pt" height="1000.000000pt" viewBox="0 0 667.000000 1000.000000"
 preserveAspectRatio="xMidYMid meet">
<metadata>
Created by potrace 1.15, written by Peter Selinger 2001-2017
</metadata>
<g transform="translate(0.000000,1000.000000) scale(0.100000,-0.100000)"
fill="#000000" stroke="none">
<path d="M2462 9983 c-7 -19 -10 -493 -3 -644 3 -79 5 -85 20 -72 31 28 206
135 261 160 66 30 183 53 265 51 61 -1 50 -3 -62 -14 -50 -4 -63 -9 -63 -22 0
-15 -2 -15 -10 -2 -7 12 -12 12 -22 2 -9 -9 -9 -12 0 -12 6 0 9 -7 6 -15 -4
-9 -12 -14 -19 -13 -8 2 -14 -1 -15 -7 -1 -5 -8 -14 -16 -18 -8 -4 -14 -13
-14 -18 0 -6 5 -7 12 -3 7 5 8 3 4 -5 -5 -7 -10 -10 -13 -7 -9 9 -71 -67 -66
-81 3 -8 -2 -13 -12 -13 -12 0 -16 -6 -12 -20 3 -11 2 -18 -3 -15 -8 5 -48
-31 -67 -61 -8 -13 -11 -14 -7 -3 8 24 -16 36 -31 16 -7 -9 -15 -14 -18 -10
-4 3 -7 1 -7 -5 0 -7 -5 -12 -11 -12 -5 0 -7 5 -3 12 5 7 3 8 -5 4 -7 -5 -10
-14 -7 -22 3 -8 1 -14 -4 -14 -6 0 -10 8 -11 18 0 12 -3 10 -10 -8 l-10 -25
-13 30 c-8 17 -18 46 -24 65 l-10 35 -1 -47 c-1 -25 4 -48 9 -50 12 -4 13 -23
4 -86 -6 -42 -24 -69 -24 -35 0 15 -2 16 -10 3 -6 -10 -5 -17 5 -23 17 -9 12
-66 -7 -78 -10 -6 -10 -9 -1 -9 7 0 10 -6 7 -14 -3 -8 -13 -12 -25 -9 -12 3
-17 9 -12 12 5 3 3 17 -5 31 -13 23 -13 23 -9 3 3 -13 0 -26 -5 -29 -16 -10 4
-217 40 -406 7 -37 7 -37 19 -13 8 19 8 23 0 18 -8 -5 -8 -2 0 8 10 12 9 20
-3 37 -8 12 -11 22 -6 22 16 0 35 -29 29 -44 -3 -7 0 -19 6 -25 9 -9 8 -14 -3
-21 -12 -8 -12 -10 -1 -10 9 0 12 -8 9 -25 -3 -14 -1 -22 5 -18 5 3 6 -4 2
-18 -10 -33 -25 -50 -37 -43 -15 9 0 -68 28 -149 l23 -68 -41 -37 c-77 -70
-112 -78 -354 -80 -165 -1 -170 0 -184 21 -11 18 -240 467 -322 632 -27 54
-80 138 -93 148 -5 4 -21 5 -35 1 -43 -9 -138 -55 -155 -74 -19 -20 -32 11
162 -371 60 -119 113 -224 116 -235 3 -10 13 -37 21 -59 26 -68 23 -75 -36
-75 -28 0 -93 -7 -142 -15 -50 -9 -145 -24 -211 -35 -66 -11 -151 -26 -188
-33 -87 -18 -97 -10 -97 72 0 35 -12 100 -30 162 -34 117 -38 202 -19 395 9
96 9 120 -5 167 -21 71 -51 110 -80 101 -62 -19 -109 -108 -120 -229 -27 -294
-36 -330 -79 -340 -12 -2 -78 -6 -147 -8 -80 -2 -135 -8 -153 -17 -47 -23 -70
-81 -72 -185 -1 -54 -8 -103 -17 -123 -22 -49 -9 -125 25 -152 34 -27 34 -45
2 -66 -22 -14 -30 -15 -50 -4 -17 9 -47 11 -109 5 l-86 -7 0 -611 0 -611 48
-46 c27 -25 116 -109 198 -186 82 -78 171 -161 199 -185 27 -24 80 -72 118
-106 37 -34 92 -77 122 -95 57 -34 76 -61 96 -141 16 -63 58 -120 117 -157 57
-36 83 -37 348 -15 164 13 194 19 302 55 136 45 210 51 320 25 35 -8 67 -13
72 -10 5 3 17 -18 28 -47 l19 -52 -31 -21 c-155 -103 -243 -142 -361 -160
-178 -27 -265 -81 -265 -166 0 -49 -2 -47 219 -223 156 -124 199 -163 237
-215 13 -17 37 26 194 364 52 110 96 202 98 205 2 3 9 -3 17 -13 11 -15 5 -33
-43 -130 -104 -213 -448 -993 -629 -1427 -124 -297 -180 -438 -354 -890 -157
-408 -162 -418 -186 -429 -29 -13 -29 -5 -3 57 11 26 66 171 124 322 137 363
302 775 547 1369 33 79 58 146 55 148 -2 2 -7 -5 -11 -16 -3 -12 -11 -21 -16
-21 -5 0 -9 -7 -9 -15 0 -18 -38 -95 -46 -95 -3 0 -3 8 0 18 3 9 -4 5 -17 -11
l-23 -28 -29 27 c-16 15 -30 37 -30 49 -1 11 -4 25 -7 31 -3 5 -13 36 -23 69
-10 33 -26 69 -37 81 -10 11 -18 26 -18 32 0 7 -5 12 -12 12 -6 0 -26 11 -44
25 -18 14 -37 25 -42 25 -32 0 -145 70 -203 128 -37 36 -76 70 -86 75 -37 20
-130 82 -180 121 -67 53 -99 77 -132 99 -41 27 -253 129 -281 134 -13 2 -31
10 -40 18 -8 7 -42 38 -75 69 -120 111 -150 135 -166 136 -9 0 -22 7 -29 15
-7 8 -21 15 -31 15 -19 0 -19 -64 -19 -2655 l0 -2655 3335 0 3335 0 0 3970 0
3970 -27 0 c-16 0 -111 -9 -213 -20 -234 -25 -498 -27 -584 -4 -86 23 -128 43
-133 65 -3 10 -12 19 -19 19 -8 0 -14 7 -14 15 0 15 -58 74 -73 75 -5 0 -23 7
-41 15 -18 9 -70 26 -117 39 -46 13 -111 34 -144 46 -56 21 -71 22 -210 16
-82 -3 -186 -13 -230 -22 -61 -12 -162 -17 -434 -20 l-354 -5 7 23 c19 65 18
87 -4 118 -29 41 -106 90 -141 90 -22 0 -41 -17 -101 -92 -41 -51 -87 -110
-102 -130 -16 -21 -35 -38 -42 -38 -19 0 -18 65 1 119 41 116 41 316 1 516 -9
44 -21 105 -27 135 -6 30 -16 64 -22 75 -6 11 -12 25 -13 30 -6 28 -25 65 -33
65 -6 0 -8 6 -5 14 7 18 -12 30 -22 15 -5 -8 -3 -9 7 -4 12 8 12 6 0 -8 -18
-22 -18 -22 -16 16 2 18 7 31 14 29 8 -1 8 3 -1 17 -13 21 -40 20 -66 -1 -13
-11 -14 -11 -7 2 6 8 10 18 10 22 0 3 4 10 9 15 5 5 6 3 2 -4 -10 -19 -1 -16
15 4 8 9 9 14 3 10 -7 -4 -15 0 -18 9 -6 15 -8 15 -31 0 -14 -9 -25 -14 -25
-10 0 4 -8 0 -17 -7 -15 -11 -15 -10 1 8 10 13 22 20 26 18 4 -3 14 3 21 13
13 15 12 16 -3 3 -14 -10 -18 -11 -18 -1 0 9 -7 7 -20 -5 -29 -26 -34 -13 -8
21 12 16 15 23 8 17 -18 -16 -34 -17 -24 -1 4 7 3 8 -4 4 -6 -4 -9 -13 -6 -20
3 -7 -3 -19 -13 -26 -15 -12 -16 -12 -5 0 13 15 17 34 5 27 -5 -3 -9 6 -9 20
-2 17 2 23 13 19 8 -4 11 -1 8 5 -4 6 -13 8 -21 5 -8 -3 -23 3 -33 13 -15 15
-21 16 -25 6 -6 -17 2 -25 28 -26 20 0 20 -1 -1 -9 -16 -6 -21 -15 -17 -27 5
-14 4 -15 -4 -4 -6 8 -8 20 -5 28 3 8 2 13 -3 12 -22 -4 -21 4 2 56 27 63 28
65 13 65 -5 0 -8 -3 -6 -7 3 -5 -6 -16 -19 -26 -13 -10 -24 -13 -24 -8 0 5 4
12 9 15 5 3 11 17 14 32 4 21 1 25 -14 21 -11 -3 -19 -2 -19 3 0 4 -33 11 -72
15 -40 4 -91 10 -113 15 l-40 8 48 1 47 1 0 118 c0 64 -3 181 -7 260 l-6 142
-344 0 c-318 0 -344 -1 -351 -17z m3018 -2035 c122 -46 148 -86 136 -210 -13
-147 -33 -176 -167 -257 -95 -56 -100 -56 -193 22 -122 100 -182 187 -193 276
-17 150 42 192 262 186 67 -2 136 -9 155 -17z m-1578 -670 c17 -53 126 -154
145 -135 2 3 -5 11 -18 17 -40 22 -109 92 -109 112 0 11 -5 28 -10 39 -10 17
-8 18 17 8 15 -6 35 -16 43 -23 8 -7 22 -16 31 -19 19 -6 69 -102 69 -131 0
-16 20 -31 82 -63 45 -23 84 -41 86 -39 2 2 -30 21 -70 43 -71 38 -74 41 -95
101 -12 34 -19 62 -14 62 18 0 101 -41 101 -50 0 -6 6 -10 14 -10 28 0 86 -96
86 -141 0 -17 34 -49 52 -49 16 0 7 16 -13 25 -15 7 -28 30 -40 70 -10 32 -16
61 -14 63 2 2 26 -7 54 -20 36 -16 56 -33 66 -55 9 -18 20 -35 25 -38 6 -3 10
-19 10 -36 0 -27 -3 -29 -38 -29 -60 0 -373 164 -433 227 -39 41 -69 101 -69
139 0 15 31 -35 42 -68z m836 -310 c100 -50 217 -153 265 -237 46 -79 50 -90
26 -84 -10 3 -31 28 -47 56 -25 47 -27 49 -30 24 -4 -29 -16 -35 -29 -14 -4 7
-26 23 -48 36 -22 13 -45 32 -53 42 -7 10 -19 19 -25 19 -7 0 -22 15 -35 33
-45 64 -94 121 -130 149 l-37 30 30 -7 c17 -3 67 -25 113 -47z m-185 -52 c31
-39 52 -86 62 -137 3 -13 9 -27 15 -33 5 -5 10 -28 10 -49 0 -26 6 -45 18 -54
9 -8 12 -12 6 -9 -7 3 -15 -4 -19 -17 -5 -17 -8 -18 -12 -7 -3 8 -14 23 -23
32 -10 9 -20 23 -23 30 -3 11 -8 11 -26 0 -11 -7 -21 -10 -21 -8 0 2 -3 12 -7
21 -5 14 -2 16 16 10 l21 -6 -21 40 c-11 23 -25 41 -30 41 -5 0 -15 15 -24 33
-8 17 -22 43 -32 57 -17 23 -17 24 0 17 15 -6 17 -3 12 13 -4 11 -4 33 0 49 8
39 36 31 78 -23z m-141 -72 c4 -3 8 1 8 8 1 15 59 -52 60 -68 0 -6 11 -21 25
-34 20 -19 24 -30 19 -55 -5 -28 -2 -33 23 -44 22 -9 29 -18 31 -48 l2 -36
-30 39 c-17 21 -37 46 -44 54 -25 31 -27 41 -15 58 8 9 2 7 -12 -5 -14 -13
-29 -23 -35 -23 -5 0 -2 5 6 10 12 8 13 13 3 30 -15 23 -17 33 -5 26 4 -2 14
-1 21 3 9 6 6 14 -15 30 -14 11 -32 21 -38 21 -6 0 -4 -5 4 -10 8 -5 11 -10 6
-10 -5 0 -22 15 -37 33 -19 23 -30 29 -38 21 -8 -7 -4 -17 13 -33 14 -13 22
-29 19 -37 -5 -13 8 -19 30 -15 4 1 3 -8 -4 -20 -6 -12 -7 -19 -1 -16 11 7 35
-40 27 -54 -3 -5 1 -6 9 -3 10 4 22 -8 37 -38 12 -24 28 -50 36 -60 10 -11 11
-18 4 -23 -6 -3 -11 -1 -11 5 0 6 -5 8 -12 4 -8 -5 -9 -1 -5 12 6 14 2 13 -14
-6 -17 -21 -20 -22 -14 -5 4 14 -6 8 -34 -20 -49 -47 -55 -36 -8 14 l32 35
-38 -32 c-38 -32 -53 -40 -42 -22 9 14 -8 12 -25 -2 -8 -7 -6 -3 4 10 11 12
17 24 14 27 -3 3 -11 -1 -18 -10 -7 -8 -17 -15 -23 -15 -5 0 -2 10 9 22 10 12
13 18 5 13 -9 -5 -12 -3 -9 6 3 8 13 14 24 14 10 0 25 4 32 8 14 10 16 -4 2
-21 -5 -7 -3 -6 6 2 13 11 14 18 5 35 -7 12 -9 27 -5 34 4 6 -8 -2 -27 -18
-82 -73 -89 -74 -24 -5 41 44 51 58 25 34 -72 -64 -89 -72 -40 -19 39 43 40
45 7 15 -29 -27 -40 -32 -46 -21 -6 9 -11 10 -15 2 -4 -6 -2 -11 4 -11 6 0 8
-5 4 -11 -4 -8 -9 -7 -15 2 -8 11 -12 10 -24 -5 -8 -11 -17 -17 -20 -14 -9 9
64 68 78 62 7 -2 28 13 47 33 19 21 28 32 20 26 -22 -20 -35 -15 -17 5 24 26
21 36 -3 12 -11 -11 -19 -23 -19 -27 3 -20 -2 -33 -12 -33 -8 0 -7 6 2 17 12
14 12 16 -1 11 -8 -3 -14 -12 -14 -21 1 -9 -2 -14 -7 -11 -5 3 -28 -9 -52 -27
l-42 -33 35 39 35 39 -30 -19 -30 -18 19 21 c27 31 8 27 -28 -5 l-31 -28 29
33 c17 17 25 32 19 32 -5 0 -18 -9 -28 -20 -10 -11 -20 -18 -22 -16 -6 6 69
75 81 76 5 0 1 -9 -9 -20 -16 -17 -16 -20 -3 -15 9 4 19 13 22 21 3 8 11 14
17 14 7 0 2 -11 -11 -25 -27 -29 -17 -34 14 -7 21 17 21 17 2 -5 -22 -26 -11
-31 15 -7 16 15 17 18 3 31 -8 9 -12 23 -9 31 4 12 1 11 -15 -3 -21 -19 -21
-19 -16 12 4 22 2 33 -9 37 -8 3 -17 1 -20 -4 -4 -6 -1 -10 5 -10 6 0 8 -4 5
-10 -3 -5 -1 -10 6 -10 8 0 8 -4 -1 -15 -10 -13 -15 -13 -21 -3 -4 7 -11 9
-16 5 -4 -5 -2 -12 5 -16 10 -6 6 -13 -15 -26 -28 -18 -28 -18 -10 2 16 18 16
21 2 26 -18 7 -20 43 -4 53 8 5 10 -1 7 -20 -4 -21 -3 -24 8 -15 7 6 18 8 23
4 7 -3 8 0 5 9 -3 9 -10 13 -15 10 -5 -3 -6 2 -3 10 3 9 9 16 13 17 39 5 49 4
45 -3 -3 -4 -3 -8 0 -8 2 0 11 -3 20 -6 9 -3 16 -1 16 6 0 6 -5 8 -12 4 -7 -4
-8 -3 -4 4 4 6 13 9 21 6 12 -5 12 -11 4 -27 -11 -21 -10 -21 6 -5 13 12 15
21 8 30 -6 7 -10 20 -10 29 0 14 7 15 40 7 22 -5 44 -11 49 -14z m-3125 -697
c21 -15 44 -36 51 -47 7 -11 16 -18 21 -15 5 2 14 -2 21 -10 26 -31 160 -12
188 27 14 19 38 26 26 6 -4 -7 -3 -8 5 -4 14 9 74 -32 66 -45 -4 -5 2 -9 12
-9 15 0 15 -2 3 -9 -8 -6 -18 -7 -22 -5 -17 11 -7 -10 29 -59 21 -28 48 -81
60 -117 l22 -65 -22 -8 c-26 -10 -420 0 -567 14 -138 13 -238 35 -262 55 -14
14 -17 25 -12 53 4 20 13 43 20 52 9 10 14 40 14 80 0 76 14 112 50 127 15 7
73 10 142 8 108 -3 121 -5 155 -29z m3297 -1533 c24 -9 30 -65 12 -109 -9 -21
-19 -71 -23 -109 l-6 -71 -68 -32 c-72 -35 -89 -39 -89 -22 0 5 -4 8 -9 4 -16
-9 -18 5 -26 133 -6 105 -5 121 8 116 8 -3 23 5 33 18 46 58 121 90 168 72z
m-2374 -388 c0 -1 -9 -21 -20 -44 -11 -22 -20 -50 -20 -61 0 -11 -7 -27 -16
-35 -8 -9 -11 -16 -6 -16 6 0 5 -18 -1 -46 -11 -48 -62 -113 -87 -112 -37 2
-94 -5 -72 -9 25 -5 26 -11 12 -48 -9 -23 -15 -27 -40 -23 -18 3 -29 0 -27 -6
3 -9 23 -11 69 -7 9 0 21 16 28 35 7 24 16 33 25 29 13 -4 13 -9 0 -33 -8 -15
-12 -30 -9 -32 2 -3 -3 -24 -11 -48 -8 -24 -13 -45 -10 -48 3 -3 -5 -16 -17
-29 -21 -22 -21 -24 -3 -17 16 6 18 5 8 -7 -7 -7 -13 -24 -13 -38 -1 -29 -21
-61 -39 -61 -7 0 -10 4 -6 9 3 5 0 13 -6 17 -7 4 -9 3 -6 -3 4 -6 0 -14 -9
-17 -8 -3 -13 -2 -10 3 3 5 -3 11 -14 14 -11 3 -18 1 -14 -4 5 -9 -45 -33 -53
-25 -5 5 11 121 29 201 23 106 29 125 38 120 6 -4 10 -1 10 4 0 6 -7 11 -15
11 -20 0 -33 35 -30 85 3 60 4 62 21 79 8 9 11 16 5 16 -16 0 -4 82 17 109 10
14 30 28 43 32 22 6 249 10 249 5z m1257 -133 c31 -7 66 -66 58 -94 -6 -18 -4
-21 9 -16 9 4 16 2 16 -2 0 -5 -5 -11 -12 -13 -23 -8 1 -38 30 -38 37 0 94
-19 87 -30 -3 -4 4 -10 16 -13 16 -4 19 -2 14 13 -6 20 44 75 56 62 7 -7 13
-84 10 -132 -1 -25 -1 -25 -31 9 -26 29 -35 33 -63 28 -19 -3 -43 1 -57 9 -14
7 -20 14 -15 14 6 0 2 5 -8 11 -21 12 -38 2 -18 -10 9 -6 6 -10 -11 -14 -38
-11 -48 -8 -48 12 0 11 6 22 13 24 7 4 6 6 -4 6 -13 1 -18 15 -21 66 -2 35 -6
67 -9 69 -3 3 -58 6 -123 7 -138 2 -166 6 -166 26 0 11 23 14 128 13 70 -1
137 -4 149 -7z m-1074 -161 c-3 -12 1 -11 14 5 20 24 28 26 96 24 43 -1 47 -3
47 -25 0 -33 -8 -37 -89 -39 -38 -1 -67 -5 -64 -9 2 -5 11 -8 19 -8 8 0 14 -5
14 -11 0 -5 5 -7 10 -4 16 10 12 -7 -7 -27 -18 -20 -4 -25 16 -5 11 10 11 8 1
-9 -7 -12 -20 -21 -28 -20 -8 0 -17 -5 -19 -12 -3 -8 2 -10 14 -6 14 4 13 1
-4 -12 -13 -9 -23 -21 -23 -26 0 -5 17 4 37 19 29 22 35 24 30 10 -5 -14 -3
-17 11 -13 29 10 24 -28 -7 -45 -27 -16 -51 -15 -51 3 0 5 8 7 18 4 19 -6 50
9 39 20 -3 4 -13 1 -22 -6 -9 -7 -15 -8 -15 -2 0 6 5 13 10 15 6 3 5 4 -2 3
-7 -1 -22 -17 -33 -34 -11 -17 -25 -29 -32 -27 -7 2 -15 0 -18 -6 -11 -16 -25
1 -25 29 0 15 9 78 21 139 18 89 25 110 35 102 7 -6 10 -18 7 -27z m-2147
-122 c7 0 23 -21 35 -47 12 -27 26 -51 32 -55 6 -3 12 -35 13 -70 2 -35 0 -53
-2 -40 -3 13 -13 22 -24 22 -10 0 -32 8 -49 18 -23 12 -31 24 -31 45 0 16 -7
30 -16 34 -12 4 -14 14 -9 47 8 44 26 77 33 57 2 -6 10 -11 18 -11z m5054 -7
c74 -37 133 -97 124 -126 -9 -31 -12 -32 -31 -15 -62 55 -255 128 -339 128
-14 0 -23 4 -19 10 4 6 11 8 16 5 5 -4 9 1 9 9 0 13 15 16 93 16 81 0 100 -4
147 -27z m-122 -59 c65 -18 193 -79 222 -106 18 -17 24 -18 32 -7 10 15 3
-114 -7 -131 -4 -6 -18 -10 -33 -10 -20 0 -23 3 -13 9 11 7 5 13 -24 25 -20 9
-40 16 -43 16 -4 0 -43 16 -89 36 -46 19 -123 45 -173 58 -50 12 -93 26 -97
29 -3 4 -17 7 -30 7 -15 0 -23 6 -23 16 0 15 11 16 93 11 107 -6 224 -40 339
-97 42 -21 79 -36 82 -32 22 21 -266 134 -426 167 -34 7 -37 22 -5 28 36 6
138 -4 195 -19z m-3788 -594 c5 -9 7 -20 4 -23 -7 -6 14 -44 42 -77 12 -14 25
-35 29 -48 3 -12 11 -20 16 -17 14 9 11 -2 -6 -19 -14 -14 -14 -18 0 -45 8
-17 13 -44 11 -63 -3 -18 -5 -39 -5 -47 -1 -19 -41 16 -41 36 0 8 -5 11 -10 8
-6 -3 -18 1 -27 10 -13 13 -14 18 -3 25 10 6 6 15 -14 36 -14 16 -26 33 -26
39 0 5 -5 3 -11 -5 -8 -12 -10 -12 -8 5 3 38 -1 47 -16 41 -8 -3 -16 -1 -16 4
-1 6 -3 15 -4 20 -1 6 -3 18 -5 28 -1 10 -3 12 -7 5 -10 -26 -18 -11 -17 32 1
24 7 51 13 59 18 21 89 18 101 -4z m4635 -2660 c-3 -5 -12 -10 -18 -10 -7 0
-22 -7 -34 -15 l-22 -15 22 -34 c12 -18 24 -32 28 -30 14 8 -1 -62 -17 -73
-14 -10 -15 -15 -4 -28 7 -8 10 -25 6 -40 -6 -22 -3 -25 19 -25 26 0 33 -14
14 -26 -6 -3 -9 -14 -6 -24 3 -12 0 -17 -8 -14 -7 3 -16 1 -20 -5 -10 -18 -45
-13 -46 7 0 13 -2 13 -9 -5 -8 -20 -37 -36 -56 -31 -5 1 -24 -2 -41 -6 -23 -5
-42 -3 -64 8 -18 9 -43 16 -56 16 -12 0 -23 4 -23 9 0 5 8 7 19 4 10 -3 22 0
25 6 4 6 14 3 26 -9 22 -22 61 -26 92 -9 16 9 22 8 29 -2 11 -18 34 5 43 44 8
32 -8 36 -24 6 -7 -11 -14 -18 -17 -16 -12 12 20 47 50 55 18 5 33 16 35 26 3
15 1 16 -17 4 -15 -9 -23 -10 -32 -1 -19 19 0 50 39 66 31 12 33 15 14 16 -15
1 -26 9 -29 20 -5 18 -7 18 -29 -7 -22 -24 -26 -25 -36 -10 -11 14 -14 13 -39
-13 -15 -16 -32 -29 -39 -29 -7 0 2 13 19 29 17 16 31 34 31 40 0 6 11 16 24
23 21 9 24 16 19 39 -5 26 -2 31 38 49 47 21 105 27 94 10z m-5607 -69 l102
-1 0 -155 0 -155 -197 2 -198 3 0 150 0 150 50 5 c28 3 70 5 95 4 25 -1 91 -2
148 -3z m564 -70 c5 -112 26 -102 -215 -99 l-212 3 -3 69 c-2 38 -1 75 2 83 4
10 48 13 215 13 l209 0 4 -69z"/>
<path d="M205 391 c-11 -36 -35 -187 -35 -223 0 -26 -5 -38 -17 -41 -10 -3 67
-5 170 -6 147 -1 188 2 185 12 -3 8 -51 17 -136 27 -72 8 -134 18 -138 23 -4
4 3 7 16 7 18 0 20 3 11 13 -6 8 -8 17 -4 20 10 10 -10 8 -27 -3 -11 -7 -12
-10 -2 -10 15 0 5 -12 -33 -40 -16 -11 -17 -11 -7 0 6 8 12 35 12 61 0 37 6
55 26 79 27 32 26 53 -1 30 -8 -7 -15 -8 -15 -2 0 18 29 34 50 27 14 -4 28 -1
40 10 27 24 70 13 70 -18 0 -13 -5 -28 -12 -35 -9 -9 -8 -12 5 -12 10 0 17 8
17 20 0 11 4 20 10 20 5 0 7 -7 4 -15 -4 -10 0 -15 12 -15 36 0 44 13 33 53
l-10 37 -109 0 c-97 0 -109 -2 -115 -19z"/>
<path d="M570 340 c0 -40 4 -70 10 -70 6 0 10 10 10 23 1 22 1 22 14 -2 13
-23 14 -23 19 -5 4 16 5 16 6 2 1 -19 51 -27 51 -8 0 6 7 10 15 10 8 0 15 -4
15 -10 0 -5 11 -10 25 -10 19 0 25 5 26 23 l0 22 9 -22 c14 -36 29 -27 23 12
-3 22 -2 35 5 35 6 0 12 -15 14 -32 2 -21 9 -34 19 -36 13 -2 18 9 25 50 l8
53 4 -52 3 -53 50 0 c27 0 49 5 49 10 0 6 -4 10 -10 10 -5 0 -10 26 -12 57
l-3 58 -50 0 c-50 0 -50 0 -55 -35 -4 -27 -7 -31 -13 -17 -4 10 -7 27 -7 38 0
10 -4 19 -10 19 -5 0 -10 -5 -10 -10 0 -7 -7 -7 -21 0 -33 18 -49 5 -50 -42
-1 -25 -3 -32 -6 -18 -9 56 -14 70 -28 70 -9 0 -17 -14 -20 -37 -10 -60 -13
-62 -14 -10 -1 40 -4 48 -18 45 -11 -2 -20 -16 -24 -33 l-5 -30 -8 33 c-4 17
-14 32 -22 32 -11 0 -14 -16 -14 -70z"/>
<path d="M6225 9839 c-93 -4 -260 -12 -370 -18 -110 -5 -271 -13 -358 -17
l-158 -6 30 -19 c35 -21 50 -74 30 -110 -18 -36 -27 -39 -111 -39 -76 0 -78 0
-78 -25 0 -22 -4 -25 -32 -25 l-33 0 0 96 0 96 -34 14 c-45 19 -48 18 -17 -7
24 -19 26 -27 26 -93 0 -103 -4 -106 -163 -106 l-127 0 0 90 0 90 -54 0 c-34
0 -56 5 -59 13 -4 8 -6 7 -6 -3 0 -8 21 -54 48 -102 l50 -88 -40 0 c-26 0 -42
5 -45 15 -8 21 -139 22 -151 1 -7 -13 -37 -20 -71 -17 -10 1 -3 21 21 64 19
34 38 72 41 84 6 20 4 21 -28 13 -19 -4 -40 -4 -47 1 -7 4 -18 5 -24 1 -5 -4
-46 -7 -89 -7 -54 0 -80 -4 -83 -12 -4 -10 16 -13 76 -13 80 0 81 0 81 -25 0
-25 -1 -25 -80 -25 -63 0 -80 -3 -80 -15 0 -11 19 -15 87 -17 81 -3 86 -4 89
-25 4 -23 3 -23 -121 -23 l-125 0 0 101 c0 59 -4 98 -9 94 -5 -3 -12 -1 -16 5
-3 5 -11 10 -16 10 -6 0 -3 -7 5 -16 12 -11 16 -35 16 -88 0 -101 -7 -106
-154 -113 -69 -4 -121 -2 -128 4 -9 7 -69 4 -178 -8 -91 -10 -202 -21 -248
-25 -88 -7 -123 -24 -50 -24 24 0 113 9 198 19 143 18 221 24 278 22 19 -1 22
-6 22 -46 0 -25 5 -45 11 -45 5 0 8 -4 5 -8 -6 -10 -42 -9 -52 1 -4 4 -2 7 4
7 7 0 12 12 12 28 0 50 -7 53 -106 41 -49 -6 -91 -13 -93 -15 -2 -2 34 -4 80
-5 91 0 89 -3 -31 -39 l-75 -23 43 -11 c24 -6 40 -14 36 -19 -4 -4 5 -7 19 -7
17 0 27 -5 27 -14 0 -8 22 -22 52 -32 44 -14 74 -16 193 -10 77 3 192 13 255
21 63 9 192 20 285 25 94 5 240 15 325 21 172 12 342 21 379 20 13 -1 29 3 35
7 10 7 31 9 39 2 1 -1 63 -3 137 -4 74 -1 123 -1 108 1 -26 4 -28 7 -28 54 0
27 5 49 10 49 6 0 10 -18 10 -39 0 -34 3 -38 20 -34 14 4 20 0 20 -11 0 -10 5
-14 10 -11 6 3 10 26 10 50 0 46 12 57 45 44 19 -7 19 -8 -2 -8 -13 -1 -23 -5
-23 -10 0 -5 10 -12 23 -16 l22 -8 -22 -4 c-30 -6 -29 -19 2 -25 13 -3 23 -1
22 5 -3 15 46 19 55 5 5 -8 8 2 8 25 0 35 1 37 33 36 23 -1 26 -3 10 -6 -29
-6 -30 -23 -2 -23 14 0 19 -5 16 -14 -4 -10 0 -14 14 -13 15 1 19 9 19 37 l0
35 -57 3 c-82 5 -93 18 -93 108 0 98 9 104 151 104 126 0 140 -9 147 -93 5
-62 -10 -105 -40 -116 -14 -5 -17 -10 -10 -15 20 -12 13 -28 -8 -21 -11 4 -20
2 -20 -4 0 -6 9 -11 20 -11 14 0 20 -7 20 -21 0 -18 2 -19 15 -5 8 8 15 26 15
40 0 14 5 26 10 26 6 0 10 -15 10 -34 0 -19 5 -38 10 -41 6 -4 10 10 10 34 0
22 -4 43 -10 46 -6 3 -10 52 -10 111 l0 105 37 -3 36 -3 -2 -78 -2 -78 80 3
c60 2 80 6 76 16 -2 6 2 12 9 12 21 0 40 27 24 33 -7 2 14 8 47 12 33 4 78 12
100 17 22 6 59 12 82 15 84 10 30 23 -93 23 -76 0 -124 4 -124 10 0 6 -28 11
-62 11 -35 1 -54 3 -43 5 40 8 181 34 205 38 19 2 17 4 -8 5 -19 0 -31 5 -27
11 3 6 5 9 3 8 -2 0 -79 -4 -173 -9z m-515 -76 c19 -24 21 -37 17 -92 -7 -87
-14 -91 -151 -91 -140 0 -146 4 -146 106 0 98 8 104 151 104 105 0 108 -1 129
-27z"/>
<path d="M5555 9730 l-50 -5 0 -45 0 -45 63 -3 c72 -3 92 7 92 47 0 49 -21 60
-105 51z"/>
<path d="M4953 9732 l-53 -3 0 -50 0 -49 70 0 c73 0 90 11 90 57 -1 41 -24 51
-107 45z"/>
<path d="M5842 9729 c-20 -7 -23 -15 -20 -51 l3 -43 63 -3 c38 -2 69 2 78 9
19 15 18 64 -2 83 -17 18 -85 21 -122 5z"/>
</g>
</svg>
