<?xml version="1.0" standalone="no"?>
<!DOCTYPE svg PUBLIC "-//W3C//DTD SVG 20010904//EN"
 "http://www.w3.org/TR/2001/REC-SVG-20010904/DTD/svg10.dtd">
<svg version="1.0" xmlns="http://www.w3.org/2000/svg"
 width="200.000000pt" height="252.000000pt" viewBox="0 0 200.000000 252.000000"
 preserveAspectRatio="xMidYMid meet">
<metadata>
Created by potrace 1.15, written by Peter Selinger 2001-2017
</metadata>
<g transform="translate(0.000000,252.000000) scale(0.100000,-0.100000)"
fill="#000000" stroke="none">
<path d="M0 2380 l0 -140 1000 0 1000 0 0 140 0 140 -1000 0 -1000 0 0 -140z
m219 89 c51 -18 68 -99 21 -99 -14 0 -20 9 -23 38 l-4 37 -1 -42 -2 -43 43 0
c82 0 87 -28 10 -54 -53 -18 -85 -20 -98 -7 -6 5 -28 11 -50 13 -54 4 -53 28
3 48 l42 14 0 53 c0 58 4 61 59 42z"/>
<path d="M847 2083 c-24 -4 -33 -16 -63 -80 -33 -74 -35 -76 -54 -58 -17 16
-18 20 -5 38 21 30 19 44 -10 72 -22 22 -32 25 -105 25 l-80 0 0 -125 0 -125
130 1 c129 0 130 0 136 25 4 17 13 24 30 24 23 0 23 -1 -11 -35 -35 -37 -50
-80 -43 -131 4 -26 5 -27 13 -9 11 26 25 35 53 35 24 0 30 -15 10 -23 -7 -3 1
-6 17 -6 23 -1 27 -4 15 -11 -12 -8 -9 -10 12 -10 15 0 30 5 33 10 4 6 1 9 -6
8 -7 -2 -15 5 -17 15 -3 13 3 17 26 17 38 0 46 -9 26 -31 -14 -16 -14 -20 1
-43 16 -24 27 -30 48 -27 4 0 7 -5 7 -13 0 -7 11 -21 25 -30 23 -15 26 -15 32
-1 3 9 1 21 -5 27 -8 8 -4 16 11 29 19 15 22 27 21 83 0 37 -6 72 -14 81 -11
13 -5 15 49 15 53 0 61 2 61 19 0 11 3 26 6 35 5 12 -5 15 -48 18 l-53 3 58
30 c47 24 59 35 67 65 23 81 25 80 -109 80 -111 0 -120 -1 -125 -20 -3 -11 -9
-29 -12 -40 -5 -18 -1 -20 35 -20 23 0 41 5 41 10 0 6 23 10 50 10 28 0 50 -4
50 -9 0 -5 -30 -26 -67 -47 -38 -20 -78 -44 -90 -52 -23 -14 -24 -12 -68 82
-25 53 -46 95 -48 95 -1 -1 -15 -4 -30 -6z"/>
<path d="M248 1956 l-3 -126 37 0 37 0 3 72 3 71 48 -71 c47 -72 47 -72 92
-72 l45 0 0 125 0 125 -39 0 -39 0 3 -65 c2 -36 0 -65 -3 -64 -4 0 -25 28 -48
62 -39 60 -43 62 -87 65 l-46 3 -3 -125z"/>
<path d="M1255 2068 c-2 -7 -15 -64 -28 -125 l-24 -113 49 0 c46 0 48 1 49 28
0 15 4 35 7 45 6 14 12 9 30 -28 21 -44 23 -45 67 -45 25 0 45 3 45 6 0 3 -11
30 -25 60 -14 30 -25 57 -25 60 0 4 23 33 51 65 l51 59 -48 0 c-42 0 -53 -5
-87 -37 l-39 -38 7 38 7 37 -41 0 c-24 0 -43 -5 -46 -12z"/>
<path d="M1498 2045 c-33 -39 -34 -45 -8 -45 24 0 24 3 0 -90 -11 -41 -20 -76
-20 -77 0 -2 19 -3 43 -3 l42 0 23 108 c13 59 26 115 28 125 5 14 -1 17 -38
16 -36 0 -47 -6 -70 -34z"/>
<path d="M1632 2068 c-13 -17 -34 -117 -26 -129 3 -5 41 -9 85 -9 79 0 86 -3
70 -29 -8 -12 -23 -13 -90 -5 l-80 9 -6 -27 c-4 -15 -4 -32 0 -38 4 -6 53 -10
121 -10 109 0 115 1 124 23 14 31 49 210 44 219 -9 14 -230 9 -242 -4z"/>
<path d="M1142 1698 c-13 -17 -20 -57 -21 -127 -1 -52 -2 -53 -27 -47 -23 6
-24 5 -14 -16 9 -17 5 -15 -14 7 -14 17 -28 39 -32 49 -6 18 -8 17 -20 -10
l-14 -29 5 40 c3 26 1 35 -5 26 -9 -16 -60 -27 -60 -13 0 5 -7 9 -15 9 -8 0
-15 -5 -15 -10 0 -5 -7 -7 -15 -3 -8 3 -15 3 -15 0 0 -10 23 -48 37 -62 15
-15 18 -42 4 -42 -5 0 -12 10 -16 23 -4 13 -8 17 -11 10 -4 -9 -11 -10 -22 -4
-25 13 -82 21 -82 11 0 -5 5 -10 12 -12 8 -3 6 -12 -6 -29 -18 -24 -18 -24
-13 -1 6 26 6 26 -39 7 -20 -8 -34 -20 -32 -27 2 -6 -11 -27 -29 -46 -18 -18
-33 -38 -33 -43 0 -6 -13 -15 -29 -20 -17 -6 -28 -16 -25 -23 3 -7 -11 -17
-31 -25 -19 -7 -52 -32 -72 -56 -33 -40 -38 -42 -49 -27 -8 11 -13 12 -14 5 0
-7 -15 -30 -33 -50 -57 -66 -61 -73 -46 -73 8 0 27 11 42 25 20 19 27 22 27
10 0 -8 -9 -23 -20 -32 -14 -12 -20 -30 -20 -58 0 -26 -3 -35 -9 -26 -6 9 -11
10 -15 3 -4 -6 -14 -8 -23 -5 -11 4 -8 -2 7 -20 15 -17 27 -23 34 -18 7 6 12
-1 13 -21 2 -29 1 -30 -12 -12 -13 18 -14 18 -8 -4 3 -12 13 -28 22 -35 19
-15 41 -52 41 -70 0 -15 31 -47 45 -47 4 0 5 22 1 48 -6 47 -6 48 21 47 33 0
48 40 28 79 -14 26 -11 54 8 94 17 37 23 25 20 -40 -5 -78 7 -100 36 -74 21
19 21 19 21 -5 0 -41 12 -69 27 -69 11 0 14 6 9 23 -15 51 -18 82 -9 72 8 -9
53 -119 53 -131 0 -2 -16 -4 -35 -4 -33 0 -36 -2 -33 -27 3 -25 -1 -28 -27
-30 -16 -1 -22 1 -12 3 10 3 17 15 17 30 0 22 -4 24 -45 24 -43 0 -45 -1 -45
-30 0 -17 -5 -30 -12 -30 -9 0 -9 -3 0 -12 10 -10 15 -10 23 2 5 8 7 23 5 32
-2 11 5 18 21 23 31 7 44 -3 21 -16 -29 -16 -10 -39 33 -39 37 0 39 2 39 30 0
27 3 30 30 30 17 0 30 -4 30 -10 0 -5 -7 -10 -15 -10 -8 0 -15 -9 -15 -20 0
-16 7 -20 36 -20 31 0 35 -3 29 -17 -5 -10 -17 -43 -27 -73 -11 -30 -27 -63
-36 -74 -16 -18 -16 -18 6 -12 18 6 22 3 22 -13 0 -27 -10 -51 -21 -51 -6 0
-5 9 1 21 14 26 13 26 -30 30 -19 2 -43 11 -53 21 -10 10 -23 16 -28 12 -6 -3
0 -14 12 -25 21 -18 43 -23 79 -20 11 1 10 -3 -4 -14 -11 -8 -24 -15 -29 -15
-5 0 -7 -6 -5 -12 3 -7 11 -13 19 -13 26 -1 57 -16 63 -30 4 -11 -2 -15 -24
-15 -17 0 -30 4 -30 9 0 11 -129 141 -140 141 -6 0 -10 -6 -10 -12 1 -19 24
-45 36 -41 6 2 16 -8 22 -22 6 -14 16 -25 21 -25 17 0 67 -93 53 -98 -16 -5
-15 -32 1 -32 6 0 31 9 54 19 44 20 53 19 53 -10 0 -13 -12 -19 -49 -24 -57
-8 -68 -24 -40 -59 25 -31 41 -34 37 -5 -2 17 6 25 46 40 46 19 49 19 62 2 18
-23 19 -52 2 -35 -18 18 -31 15 -26 -6 4 -15 -5 -22 -48 -37 -30 -10 -54 -24
-54 -32 0 -16 4 -16 63 2 42 13 49 13 54 -1 7 -20 2 -24 -56 -43 -53 -17 -67
-38 -23 -33 15 1 46 -3 69 -9 36 -10 43 -16 58 -58 31 -82 29 -81 192 -81
l143 0 -6 28 c-4 15 -13 44 -21 66 -7 21 -13 42 -13 47 0 10 101 0 114 -12 5
-4 -3 -28 -18 -55 -14 -25 -26 -51 -26 -56 0 -12 40 0 63 20 11 9 17 11 17 4
0 -15 27 -15 36 0 4 6 3 8 -4 4 -18 -11 -22 10 -6 33 21 30 34 23 53 -29 l17
-45 97 -3 c103 -3 104 -2 91 45 -4 14 -11 20 -18 16 -6 -4 -5 0 2 9 12 14 9
16 -25 11 -49 -6 -81 18 -89 67 -7 45 25 90 63 90 26 0 26 0 20 63 -4 34 -9
73 -12 87 -3 14 -3 19 1 13 9 -21 27 -15 21 7 -3 11 -1 23 4 26 14 8 10 24 -6
24 -20 0 -19 10 3 27 15 13 14 14 -15 9 -30 -5 -33 -3 -33 19 0 13 5 27 10 30
16 10 12 42 -6 49 -8 3 -12 10 -9 16 3 5 2 10 -2 10 -5 0 -21 28 -36 63 -33
75 -66 122 -67 94 0 -10 -4 -16 -9 -13 -5 3 -7 15 -4 26 3 12 -5 33 -21 54
-14 19 -26 41 -26 48 0 9 3 9 10 -2 6 -10 10 -11 10 -2 0 6 7 12 16 12 11 0
14 -6 10 -17 -4 -12 0 -10 10 5 9 12 24 22 33 22 14 0 14 2 1 10 -28 17 -3 20
36 3 21 -9 44 -17 50 -19 6 -1 49 -19 96 -40 l87 -38 -35 -24 c-40 -27 -56
-22 -29 8 22 24 13 26 -20 4 -14 -9 -21 -22 -18 -30 6 -16 39 -19 48 -4 3 6
18 7 33 4 19 -4 23 -3 13 4 -11 8 -10 12 8 21 15 9 21 9 21 0 0 -14 -40 -65
-48 -61 -4 2 -8 -1 -10 -7 -5 -16 9 -13 28 4 16 14 18 12 25 -27 4 -24 7 -53
7 -65 0 -13 4 -20 9 -17 5 3 9 1 9 -3 0 -5 20 -22 44 -37 30 -19 43 -33 39
-43 -4 -10 -9 -11 -16 -4 -18 18 -31 12 -15 -6 9 -10 19 -28 22 -40 4 -13 12
-23 17 -23 6 0 7 9 4 20 -14 43 2 57 59 57 32 0 69 8 92 19 l39 19 3 121 c2
97 0 124 -12 133 -15 13 -11 45 5 35 5 -3 9 -2 9 2 0 13 -35 33 -58 34 -13 0
-20 4 -17 10 4 6 -6 8 -27 6 -18 -3 -45 -5 -60 -5 -18 -1 -28 -6 -28 -16 0
-15 -70 -66 -82 -59 -3 2 -4 13 -1 24 3 11 9 18 13 15 5 -3 12 0 16 7 4 7 4
10 0 6 -5 -4 -19 -3 -32 2 -18 7 -22 6 -17 -5 8 -23 -17 -18 -85 18 -96 50
-242 184 -286 263 -22 39 -22 43 -7 68 19 32 27 33 42 4 11 -22 11 -22 -6 -8
-17 14 -17 13 -10 -10 4 -14 12 -32 17 -40 8 -12 9 -12 4 2 -3 11 4 28 19 42
25 25 34 79 16 90 -4 3 -7 -8 -5 -24 4 -31 -10 -48 -22 -29 -5 8 -3 9 6 4 9
-5 11 -4 6 4 -6 9 -11 9 -21 1 -14 -12 -40 11 -27 25 4 5 1 5 -5 1 -7 -4 -13
-3 -13 3 0 6 -11 13 -25 17 -28 7 -85 67 -85 89 0 8 -4 15 -9 15 -12 0 -21 36
-11 47 5 4 2 39 -5 78 -9 47 -10 74 -3 82 5 6 8 22 6 35 -3 26 -39 36 -56 16z"/>
<path d="M1453 1549 c-33 -10 -86 -68 -96 -107 -10 -40 24 -67 82 -67 63 0
100 31 107 91 4 32 1 44 -21 67 -28 30 -26 29 -72 16z"/>
<path d="M167 1478 c-14 -11 -19 -34 -24 -119 -5 -97 1 -169 13 -156 3 3 11
51 18 108 14 110 17 109 36 -18 8 -51 16 -73 26 -73 18 0 17 18 -5 117 -16 71
-17 84 -4 94 8 7 13 22 11 33 -4 25 -44 33 -71 14z"/>
<path d="M456 562 c-3 -5 5 -27 16 -50 22 -43 18 -70 -5 -37 -12 16 -14 15
-14 -13 0 -22 7 -33 22 -40 18 -9 23 -21 27 -67 3 -31 11 -60 18 -65 16 -10
46 -2 61 17 10 11 8 15 -8 19 -37 10 -46 81 -11 86 19 3 17 6 -20 31 -27 18
-42 35 -42 48 0 21 1 20 20 -4 24 -30 88 -72 97 -63 4 4 -4 14 -17 23 -13 9
-31 24 -40 32 -8 9 -28 22 -42 30 -15 7 -29 24 -32 37 -6 24 -20 31 -30 16z"/>
<path d="M290 539 c-19 -4 -83 -11 -142 -15 -66 -4 -105 -11 -101 -17 7 -12
284 0 298 14 14 14 85 11 85 -4 0 -13 -239 -47 -327 -47 -25 0 -43 -5 -43 -11
0 -11 76 -9 293 7 81 6 88 8 93 30 9 36 -16 54 -73 53 -26 -1 -64 -5 -83 -10z"/>
<path d="M80 385 c0 -10 -10 -15 -27 -15 -25 0 -25 -1 -9 -19 12 -13 15 -27
10 -47 -7 -26 -6 -28 9 -15 15 12 17 10 17 -28 0 -22 -3 -40 -7 -40 -5 1 -19
1 -33 0 l-24 -1 21 -15 c14 -10 19 -22 16 -35 -3 -11 -1 -20 5 -20 6 0 13 15
15 33 2 17 5 -4 7 -48 1 -44 2 -84 1 -89 -1 -5 6 -3 16 4 28 22 29 24 11 17
-13 -5 -18 -1 -18 13 0 13 7 20 20 20 13 0 20 -7 20 -20 0 -11 4 -20 10 -20 5
0 7 6 4 14 -3 8 0 17 6 21 15 9 39 -13 25 -23 -6 -4 -11 -14 -13 -22 -3 -12
-1 -13 9 -2 8 7 38 12 71 12 56 0 58 1 59 28 1 19 5 13 13 -23 12 -49 12 -49
20 -20 8 29 8 30 19 8 16 -35 27 -27 27 20 0 27 -3 37 -9 28 -7 -11 -9 -11
-14 0 -4 11 -9 10 -21 -5 -16 -19 -16 -19 -16 2 0 12 -4 22 -10 22 -6 0 -10
53 -10 140 l0 140 -110 0 c-91 0 -110 -3 -110 -15z m210 -170 l0 -105 -100 0
-100 0 0 105 0 105 100 0 100 0 0 -105z"/>
<path d="M153 283 c-24 -8 -43 -18 -43 -23 0 -4 9 -38 21 -75 17 -54 23 -65
37 -60 9 3 36 11 60 18 31 8 42 16 42 30 0 17 -5 18 -35 13 -22 -4 -35 -3 -35
4 0 5 6 10 13 10 22 0 38 16 32 32 -5 13 -13 14 -36 8 -38 -11 -38 5 1 18 21
8 28 16 24 26 -7 19 -26 19 -81 -1z"/>
<path d="M1868 289 c6 -7 12 -16 12 -19 0 -3 -36 -6 -81 -5 -44 0 -84 -4 -88
-10 -5 -5 -22 -46 -39 -90 -17 -44 -35 -80 -41 -80 -6 0 -11 -3 -11 -7 0 -5 0
-12 0 -16 0 -5 29 -7 65 -5 49 3 65 1 65 -9 0 -8 3 -9 8 -3 9 13 92 13 92 0 0
-5 5 -3 10 5 7 11 12 12 18 4 5 -9 10 -8 19 1 7 8 8 15 3 17 -6 2 3 42 20 91
32 93 35 112 22 103 -5 -3 -26 4 -48 15 -21 12 -33 15 -26 8z m-40 -52 c14
-16 5 -30 -33 -51 -16 -10 -22 -15 -13 -12 10 3 21 -2 27 -11 8 -15 11 -15 26
-3 21 18 65 24 65 10 0 -5 -3 -10 -7 -10 -5 0 -16 -7 -26 -14 -17 -13 -17 -16
-2 -45 l16 -31 -31 0 c-18 0 -33 6 -36 15 -8 19 -24 19 -24 0 0 -9 -10 -15
-26 -15 -22 0 -24 3 -18 23 15 46 11 52 -28 48 -28 -2 -38 1 -38 12 0 19 19
34 66 52 l39 14 -45 -6 -45 -6 19 22 c22 24 96 30 114 8z"/>
</g>
</svg>
